<?xml version="1.0" encoding="UTF-8"?>
<svg version="1.1" xmlns="http://www.w3.org/2000/svg" width="500" height="500">
<path d="M0 0 C2.31553618 0.00187315 4.63107277 0.00329279 6.9466095 0.00428772 C12.93857994 0.00804244 18.93052478 0.01780929 24.92248535 0.0289917 C31.07787734 0.03936053 37.23327361 0.04381791 43.38867188 0.04882812 C55.39063604 0.05944057 67.39258149 0.07642817 79.39453125 0.09765625 C78.73870509 3.56688743 77.90115414 6.54529714 76.4609375 9.7734375 C76.06455078 10.67126953 75.66816406 11.56910156 75.25976562 12.49414062 C74.61491211 13.93756836 74.61491211 13.93756836 73.95703125 15.41015625 C70.34310252 23.60277101 66.81347168 31.82175738 63.39453125 40.09765625 C60.12101608 48.00939979 56.76825051 55.88024192 53.33203125 63.72265625 C49.90296749 71.56709686 46.53982552 79.43559091 43.26953125 87.34765625 C42.87886475 88.28303223 42.48819824 89.2184082 42.08569336 90.18212891 C41.73128174 91.04628418 41.37687012 91.91043945 41.01171875 92.80078125 C40.54161377 93.94015137 40.54161377 93.94015137 40.06201172 95.10253906 C39.23589525 97.22118829 39.23589525 97.22118829 39.39453125 100.09765625 C52.06837242 92.46469162 52.06837242 92.46469162 59.39453125 80.09765625 C60.38453125 80.09765625 61.37453125 80.09765625 62.39453125 80.09765625 C68.01748207 96.96650871 68.01748207 96.96650871 65.01953125 104.59765625 C56.47654327 117.42691848 39.65091581 126.26457188 25.39453125 131.09765625 C24.73453125 131.09765625 24.07453125 131.09765625 23.39453125 131.09765625 C24.1006675 134.2987321 24.1006675 134.2987321 26.95703125 135.640625 C28.09140625 136.18332031 29.22578125 136.72601563 30.39453125 137.28515625 C31.01030029 137.58486328 31.62606934 137.88457031 32.26049805 138.19335938 C35.74558993 139.8792036 39.25992839 141.49467266 42.7890625 143.0859375 C50.77247698 146.70699879 57.74777383 150.26663724 64.39453125 156.09765625 C65.75578125 157.02578125 65.75578125 157.02578125 67.14453125 157.97265625 C73.44873947 163.92663068 75.3271115 171.13696665 75.58203125 179.53515625 C75.52260758 184.56070121 75.08595756 189.40622994 71.39453125 193.09765625 C70.71512658 195.52480831 70.71512658 195.52480831 70.26953125 198.22265625 C70.10195313 199.13273438 69.934375 200.0428125 69.76171875 200.98046875 C69.57996094 202.02847656 69.57996094 202.02847656 69.39453125 203.09765625 C68.40453125 203.09765625 67.41453125 203.09765625 66.39453125 203.09765625 C66.224375 202.54078125 66.05421875 201.98390625 65.87890625 201.41015625 C60.9403355 185.85891218 52.27645464 177.70932964 38.45849609 169.34814453 C36.1746966 167.96446568 33.90353239 166.56128353 31.6328125 165.15625 C28.50245124 163.22559493 25.3709057 161.29704319 22.23046875 159.3828125 C21.5864209 158.989729 20.94237305 158.59664551 20.27880859 158.19165039 C18.35388837 157.07405936 16.39526625 156.07193927 14.39453125 155.09765625 C13.73453125 156.41765625 13.07453125 157.73765625 12.39453125 159.09765625 C-9.71546875 159.09765625 -31.82546875 159.09765625 -54.60546875 159.09765625 C-54.7618828 118.66462543 -54.64715154 78.32463324 -53.60546875 37.91015625 C-53.5695953 36.51771006 -53.5695953 36.51771006 -53.53299713 35.09713364 C-53.23958271 23.76352686 -52.93062611 12.4303964 -52.60546875 1.09765625 C-35.06109956 0.33356709 -17.55994757 -0.04289491 0 0 Z " fill="#1C93C9" transform="translate(293.60546875,143.90234375)"/>
<path d="M0 0 C0.8545021 0.00092179 1.70900419 0.00184359 2.58940029 0.00279331 C4.05552509 0.00073132 4.05552509 0.00073132 5.55126858 -0.00137234 C6.63235897 0.00222294 7.71344936 0.00581821 8.82730007 0.00952244 C10.52464039 0.0093034 10.52464039 0.0093034 12.25627041 0.00907993 C16.01686389 0.00977964 19.77740855 0.01757472 23.53799343 0.02539158 C26.13731261 0.02725555 28.73663215 0.02867955 31.33595181 0.0296793 C37.49122295 0.03311442 43.64647378 0.04100527 49.80173725 0.05102879 C56.80767064 0.06219089 63.81360485 0.06770062 70.81954491 0.07272422 C85.23481851 0.08318791 99.65007722 0.10078675 114.06533718 0.12304783 C115.5604677 3.11330887 115.15433491 5.80165807 115.11880398 9.13623142 C115.11240902 9.85851933 115.10601406 10.58080723 115.09942532 11.32498264 C115.07656585 13.72390813 115.04595416 16.12265735 115.01455593 18.52148533 C114.99531555 20.19381601 114.97626001 21.86614882 114.95738125 23.53848362 C114.91632676 27.05419424 114.87111667 30.56982404 114.82339382 34.08545017 C114.76322692 38.56142368 114.71608467 43.03742478 114.67256355 47.513587 C114.6369286 50.97467217 114.592723 54.4356109 114.5462122 57.89656544 C114.52534432 59.54451773 114.50739136 61.19250988 114.49255848 62.84052753 C114.25974254 87.52461896 114.25974254 87.52461896 110.06533718 94.12304783 C107.52686821 95.53133598 105.09202338 96.72447989 102.44033718 97.87304783 C100.88615713 98.57441463 99.33278918 99.27758338 97.78018093 99.98242283 C96.59657986 100.51512791 96.59657986 100.51512791 95.38906765 101.0585947 C91.88473281 102.66385841 88.44256166 104.384545 85.00283718 106.12304783 C84.35290798 106.45055027 83.70297878 106.77805271 83.03335476 107.11547947 C81.71532057 107.77978955 80.39753098 108.44458516 79.07998562 109.10986423 C76.99802245 110.15690097 74.91134753 111.19397462 72.82314968 112.22851658 C71.42459987 112.92230064 70.02616056 113.6163075 68.62783718 114.31054783 C67.95913601 114.64248142 67.29043484 114.97441502 66.60146999 115.3164072 C62.2321281 117.49998417 57.95987467 119.80489578 53.76455593 122.31054783 C52.06533718 123.12304783 52.06533718 123.12304783 49.06533718 123.12304783 C45.15691791 112.17947386 41.89567574 100.74778766 41.06533718 89.12304783 C42.69137886 88.31002699 44.31746807 87.49710111 45.94375515 86.68457127 C47.37064273 85.97063488 48.79673759 85.25511219 50.22207546 84.53808689 C54.0044706 82.63817795 57.7961779 80.76638414 61.62002468 78.95117283 C62.70670437 78.42813572 62.70670437 78.42813572 63.81533718 77.8945322 C65.20909594 77.22455442 66.60745003 76.56403612 68.01064968 75.91406345 C71.74690941 74.10288877 73.54554469 72.97132972 75.06533718 69.12304783 C75.51441859 67.32328755 75.90380207 65.50810022 76.24893093 63.68554783 C76.4545364 62.62464939 76.66014187 61.56375095 76.87197781 60.47070408 C77.0801614 59.36597752 77.28834499 58.26125095 77.50283718 57.12304783 C77.91521078 54.95580991 78.33057055 52.78913803 78.74893093 50.62304783 C79.02048 49.18445408 79.02048 49.18445408 79.29751492 47.71679783 C80.41481686 42.48732737 81.76837864 37.310882 83.06533718 32.12304783 C73.16533718 32.12304783 63.26533718 32.12304783 53.06533718 32.12304783 C52.40533718 36.41304783 51.74533718 40.70304783 51.06533718 45.12304783 C50.54556222 47.75463575 49.99858242 50.38119545 49.40908718 52.99804783 C49.18738857 53.98478489 49.18738857 53.98478489 48.9612112 54.99145603 C48.65417993 56.3527064 48.34499144 57.71347209 48.0335989 59.07373142 C47.55978553 61.14734428 47.09538098 63.22291993 46.63174343 65.29882908 C46.32890922 66.6361936 46.02554358 67.97343791 45.72158718 69.31054783 C45.31649929 71.09525486 45.31649929 71.09525486 44.90322781 72.91601658 C43.44574287 78.49454865 42.43725544 81.36601233 37.44033718 84.43554783 C36.62307156 84.94730564 35.80580593 85.45906345 34.96377468 85.98632908 C34.33729031 86.36144627 33.71080593 86.73656345 33.06533718 87.12304783 C33.18650906 87.7289072 33.30768093 88.33476658 33.43252468 88.95898533 C33.97679551 91.6803395 34.52106635 94.40169366 35.06533718 97.12304783 C35.25394314 97.86885105 35.4425491 98.61465427 35.63687038 99.38305759 C37.09851225 105.55210765 36.97989028 110.18147359 35.50283718 116.31054783 C35.31737331 117.15206394 35.13190945 117.99358006 34.94082546 118.86059666 C34.54144795 120.66605391 34.13365276 122.46966633 33.71816921 124.27148533 C33.03667109 127.24826097 32.38885086 130.23082059 31.74893093 133.21679783 C29.895189 141.86142123 27.98325539 150.49241588 26.06533718 159.12304783 C12.53533718 159.12304783 -0.99466282 159.12304783 -14.93466282 159.12304783 C-13.6050513 150.48057293 -12.17183908 142.01939154 -10.30966282 133.49804783 C-10.05313938 132.3107407 -9.79661594 131.12343357 -9.53231907 129.90014744 C-7.24710589 119.39534195 -4.83448818 108.92044273 -2.41781712 98.44525242 C0.17504296 87.19389469 2.60852486 75.92221626 4.90371609 64.60571384 C6.87158109 54.93252493 9.0071698 45.30155266 11.23770046 35.68554783 C11.47730495 34.63367283 11.71690945 33.58179783 11.96377468 32.49804783 C12.17695339 31.5776572 12.3901321 30.65726658 12.60977077 29.70898533 C13.07299746 27.07956567 13.28659864 24.7848734 13.06533718 22.12304783 C11.12635839 19.44906307 11.12635839 19.44906307 9.06533718 17.12304783 C9.06533718 16.46304783 9.06533718 15.80304783 9.06533718 15.12304783 C8.40533718 15.12304783 7.74533718 15.12304783 7.06533718 15.12304783 C5.77627468 13.66211033 5.77627468 13.66211033 4.44033718 11.74804783 C3.99432156 11.12156345 3.54830593 10.49507908 3.08877468 9.84961033 C2.06533718 8.12304783 2.06533718 8.12304783 2.06533718 6.12304783 C1.40533718 6.12304783 0.74533718 6.12304783 0.06533718 6.12304783 C0.06533718 5.46304783 0.06533718 4.80304783 0.06533718 4.12304783 C-0.59466282 4.12304783 -1.25466282 4.12304783 -1.93466282 4.12304783 C-2.26466282 3.13304783 -2.59466282 2.14304783 -2.93466282 1.12304783 C-1.93466282 0.12304783 -1.93466282 0.12304783 0 0 Z " fill="#060606" transform="translate(121.93466281890869,143.87695217132568)"/>
<path d="M0 0 C0.99 0 1.98 0 3 0 C8.62295082 16.86885246 8.62295082 16.86885246 5.625 24.5 C-2.91798798 37.32926223 -19.74361544 46.16691563 -34 51 C-34.66 51 -35.32 51 -36 51 C-35.29386375 54.20107585 -35.29386375 54.20107585 -32.4375 55.54296875 C-31.303125 56.08566406 -30.16875 56.62835938 -29 57.1875 C-28.07634644 57.63706055 -28.07634644 57.63706055 -27.1340332 58.09570312 C-23.64894132 59.78154735 -20.13460286 61.39701641 -16.60546875 62.98828125 C-8.62205427 66.60934254 -1.64675742 70.16898099 5 76 C5.9075 76.61875 6.815 77.2375 7.75 77.875 C14.05420822 83.82897443 15.93258025 91.0393104 16.1875 99.4375 C16.12807633 104.46304496 15.69142631 109.30857369 12 113 C11.32059533 115.42715206 11.32059533 115.42715206 10.875 118.125 C10.70742188 119.03507812 10.53984375 119.94515625 10.3671875 120.8828125 C10.18542969 121.93082031 10.18542969 121.93082031 10 123 C9.01 123 8.02 123 7 123 C6.82984375 122.443125 6.6596875 121.88625 6.484375 121.3125 C1.54500207 105.75872992 -7.11969215 97.61122482 -20.94042969 89.25048828 C-23.21344597 87.87040419 -25.47020617 86.4657396 -27.7265625 85.05859375 C-29.33805723 84.05911434 -30.95003088 83.06040665 -32.5625 82.0625 C-33.32425537 81.5895752 -34.08601074 81.11665039 -34.87084961 80.62939453 C-37.87925962 78.78748354 -40.65950196 77.12964945 -43.96484375 75.87109375 C-44.63644531 75.58363281 -45.30804688 75.29617188 -46 75 C-46.33 74.01 -46.66 73.02 -47 72 C-48.9466718 70.15600979 -51.00800719 68.50530088 -53.08984375 66.81640625 C-55.75971844 64.27756835 -56.8901576 62.32689622 -57.1953125 58.640625 C-57.17210937 57.85171875 -57.14890625 57.0628125 -57.125 56.25 C-57.10695313 55.45078125 -57.08890625 54.6515625 -57.0703125 53.828125 C-57.04710937 53.22484375 -57.02390625 52.6215625 -57 52 C-55.515 51.505 -55.515 51.505 -54 51 C-54 51.66 -54 52.32 -54 53 C-53.01 52.505 -53.01 52.505 -52 52 C-52.33 51.34 -52.66 50.68 -53 50 C-53.06950541 48.45976004 -53.08452357 46.91665012 -53.0625 45.375 C-53.05347656 44.55773437 -53.04445313 43.74046875 -53.03515625 42.8984375 C-53.02355469 42.27195312 -53.01195312 41.64546875 -53 41 C-52.01 40.505 -52.01 40.505 -51 40 C-50.67 41.32 -50.34 42.64 -50 44 C-49.01 43.505 -49.01 43.505 -48 43 C-48.33 42.34 -48.66 41.68 -49 41 C-49.039992 39.00039988 -49.04346799 36.99952758 -49 35 C-47.25 34.125 -45.5 33.25 -43.75 32.375 C-42.66332031 31.8284375 -41.57664062 31.281875 -40.45703125 30.71875 C-38.19391317 29.59358395 -35.920655 28.48853338 -33.63671875 27.40625 C-32.58097656 26.9009375 -31.52523438 26.395625 -30.4375 25.875 C-29.46683594 25.41867188 -28.49617188 24.96234375 -27.49609375 24.4921875 C-24.89939472 22.93985725 -23.61230864 21.52975026 -22 19 C-21.505 19.99 -21.505 19.99 -21 21 C-7.88175585 12.72618257 -7.88175585 12.72618257 0 0 Z " fill="#31AEDC" transform="translate(353,224)"/>
<path d="M0 0 C34.65 0 69.3 0 105 0 C104.67 1.65 104.34 3.3 104 5 C103.505 4.01 103.505 4.01 103 3 C103.33 2.34 103.66 1.68 104 1 C81.89 1 59.78 1 37 1 C43.93 10.405 43.93 10.405 51 20 C52.12494067 25.62470337 52.12494067 25.62470337 50.6550293 29.09204102 C50.33201843 29.87215042 50.00900757 30.65225983 49.6762085 31.45600891 C49.31255188 32.29681503 48.94889526 33.13762115 48.57421875 34.00390625 C48.19952454 34.89953781 47.82483032 35.79516937 47.43878174 36.71794128 C46.2003116 39.67131964 44.94396268 42.61673675 43.6875 45.5625 C42.82550338 47.60845981 41.96492475 49.65501759 41.10571289 51.70214844 C39.77042375 54.88339721 38.43426481 58.06424349 37.09336853 61.24313354 C33.93904726 68.72724014 30.8478557 76.23493182 27.796875 83.76171875 C27.38472244 84.7773439 26.97256989 85.79296906 26.54792786 86.83937073 C24.94926556 90.78086006 23.35170709 94.72277199 21.76107788 98.66751099 C20.66682301 101.37914484 19.56645402 104.08822277 18.46484375 106.796875 C17.98014618 108.00611885 17.98014618 108.00611885 17.48565674 109.23979187 C15.22738732 114.77261268 15.22738732 114.77261268 13 117 C12.86545433 96.10802465 13.18751373 75.26404869 13.86883545 54.38378906 C13.96124455 51.51212482 14.04845795 48.64031202 14.13567162 45.76848602 C14.59034016 30.83529667 15.13586644 15.91603519 16 1 C10.72 1 5.44 1 0 1 C0 0.67 0 0.34 0 0 Z " fill="#FBFDFE" transform="translate(268,144)"/>
<path d="M0 0 C0.99 0 1.98 0 3 0 C8.62295082 16.86885246 8.62295082 16.86885246 5.625 24.5 C-2.67567653 36.96537583 -19.86772022 46.75177692 -34 51 C-38.85075545 51.43966728 -41.18150357 50.01927625 -45 47 C-45 46.34 -45 45.68 -45 45 C-40.38 42.69 -35.76 40.38 -31 38 C-35.37273019 39.09318255 -38.72732207 40.89818134 -42.66015625 43.0390625 C-45 44 -45 44 -48 43 C-49.35439668 40.29120665 -49.06501451 37.99066732 -49 35 C-47.25 34.125 -45.5 33.25 -43.75 32.375 C-42.66332031 31.8284375 -41.57664062 31.281875 -40.45703125 30.71875 C-38.19391317 29.59358395 -35.920655 28.48853338 -33.63671875 27.40625 C-32.58097656 26.9009375 -31.52523438 26.395625 -30.4375 25.875 C-29.46683594 25.41867188 -28.49617188 24.96234375 -27.49609375 24.4921875 C-24.89939472 22.93985725 -23.61230864 21.52975026 -22 19 C-21.67 19.66 -21.34 20.32 -21 21 C-7.88175585 12.72618257 -7.88175585 12.72618257 0 0 Z " fill="#9C9E9F" transform="translate(353,224)"/>
<path d="M0 0 C0 0.99 0 1.98 0 3 C-1.95585325 4.00484204 -3.91476237 5.00373805 -5.875 6 C-6.96554687 6.556875 -8.05609375 7.11375 -9.1796875 7.6875 C-12 9 -12 9 -14 9 C-14 9.66 -14 10.32 -14 11 C-12.88625 11.433125 -12.88625 11.433125 -11.75 11.875 C-6.83606557 13.8852459 -6.83606557 13.8852459 -5 15 C-4.67 15.99 -4.34 16.98 -4 18 C-1.34313017 19.65543307 -1.34313017 19.65543307 2 21.1875 C2.61576904 21.48720703 3.23153809 21.78691406 3.8659668 22.09570312 C7.35105868 23.78154735 10.86539714 25.39701641 14.39453125 26.98828125 C22.37794573 30.60934254 29.35324258 34.16898099 36 40 C36.9075 40.61875 37.815 41.2375 38.75 41.875 C43.51724271 46.37739589 46.58983218 52.43731491 47 59 C47.0594522 62.00233603 47.06004526 64.99773716 47 68 C45.515 68.495 45.515 68.495 44 69 C43.63648438 68.28714844 43.27296875 67.57429688 42.8984375 66.83984375 C35.30070387 52.36518711 25.70142408 46.21115169 11.27392578 39.12353516 C-14.54273309 26.40732118 -14.54273309 26.40732118 -21 17.125 C-22.31670663 13.01029178 -22.25686764 9.2811274 -22 5 C-21.34 4.67 -20.68 4.34 -20 4 C-19.67 5.32 -19.34 6.64 -19 8 C-12.2813095 6.00386732 -6.19265192 3.2708579 0 0 Z " fill="#32ADDB" transform="translate(322,260)"/>
<path d="M0 0 C0.66 0 1.32 0 2 0 C3.79891744 5.39675231 3.70669812 10.20113205 1.625 15.5 C-6.67567653 27.96537583 -23.86772022 37.75177692 -38 42 C-42.85075545 42.43966728 -45.18150357 41.01927625 -49 38 C-49 37.34 -49 36.68 -49 36 C-48.40687012 35.74420166 -47.81374023 35.48840332 -47.20263672 35.22485352 C-20.45947406 24.29281208 -20.45947406 24.29281208 -1 4 C-0.30420546 1.80869466 -0.30420546 1.80869466 0 0 Z " fill="#9C9C9D" transform="translate(357,233)"/>
<path d="M0 0 C0.8545021 0.00092179 1.70900419 0.00184359 2.58940029 0.00279331 C3.56681683 0.00141865 4.54423336 0.00004398 5.55126858 -0.00137234 C6.63235897 0.00222294 7.71344936 0.00581821 8.82730007 0.00952244 C10.52464039 0.0093034 10.52464039 0.0093034 12.25627041 0.00907993 C16.01686389 0.00977964 19.77740855 0.01757472 23.53799343 0.02539158 C26.13731261 0.02725555 28.73663215 0.02867955 31.33595181 0.0296793 C37.49122295 0.03311442 43.64647378 0.04100527 49.80173725 0.05102879 C56.80767064 0.06219089 63.81360485 0.06770062 70.81954491 0.07272422 C85.23481851 0.08318791 99.65007722 0.10078675 114.06533718 0.12304783 C115.54841145 3.08919638 115.14681813 6.07981011 115.0870657 9.32666111 C115.07745815 10.06822453 115.06785061 10.80978794 115.05795193 11.57382298 C115.02491186 14.03043051 114.98459872 16.48686296 114.94424343 18.94336033 C114.9199472 20.64443433 114.8961034 22.34551485 114.87269497 24.0466013 C114.80980455 28.52817288 114.74075198 33.00962936 114.67043972 37.49108982 C114.599801 42.06236616 114.53495735 46.63372424 114.46963406 51.20507908 C114.34055783 60.17782515 114.20497518 69.15046034 114.06533718 78.12304783 C113.73533718 78.12304783 113.40533718 78.12304783 113.06533718 78.12304783 C113.06533718 53.04304783 113.06533718 27.96304783 113.06533718 2.12304783 C93.03014186 2.27179841 93.03014186 2.27179841 72.99502468 2.42968845 C64.82837667 2.4960785 56.66173101 2.56152407 48.49502468 2.62036228 C41.91386342 2.66778235 35.33275582 2.72030223 28.75165844 2.77598858 C26.23576464 2.79643248 23.71985615 2.81514213 21.20393658 2.83212185 C17.69104842 2.85612083 14.17826217 2.88618153 10.66543484 2.91772556 C9.61599194 2.92348103 8.56654903 2.92923649 7.48530483 2.93516636 C6.5317561 2.94495518 5.57820736 2.954744 4.59576321 2.96482944 C3.76430593 2.971282 2.93284866 2.97773455 2.07619572 2.98438263 C-0.00598491 2.99844967 -0.00598491 2.99844967 -1.93466282 4.12304783 C-2.26466282 3.13304783 -2.59466282 2.14304783 -2.93466282 1.12304783 C-1.93466282 0.12304783 -1.93466282 0.12304783 0 0 Z " fill="#9C9C9C" transform="translate(121.93466281890869,143.87695217132568)"/>
<path d="M0 0 C0.8971875 0.4846875 1.794375 0.969375 2.71875 1.46875 C8.84264638 4.76221135 14.9733784 8.01368562 21.22070312 11.06811523 C35.64054045 18.1340437 48.28778521 25.10350752 54 41 C54.66 41 55.32 41 56 41 C56.1875 43.8125 56.1875 43.8125 56 47 C55.525625 47.45375 55.05125 47.9075 54.5625 48.375 C52.49110461 50.5292512 52.30530872 52.26855601 51.8125 55.1875 C51.57466797 56.53908203 51.57466797 56.53908203 51.33203125 57.91796875 C51.22246094 58.60503906 51.11289062 59.29210937 51 60 C50.01 60 49.02 60 48 60 C44.74031891 50.58997722 44.74031891 50.58997722 44 46 C47.44216672 48.6598561 47.99504674 51.90288286 49 56 C49.33 56 49.66 56 50 56 C50.3832207 45.09950007 50.58128646 36.67384444 43 28 C34.65006955 20.99466383 24.89512688 16.144973 15.22338867 11.24975586 C9.62135641 8.41178072 4.270146 5.41779882 -1 2 C-0.67 1.34 -0.34 0.68 0 0 Z " fill="#D7F4FC" transform="translate(312,287)"/>
<path d="M0 0 C0.99 0 1.98 0 3 0 C4.42871248 4.5328216 5.29240319 7.88886788 4.0625 12.5625 C-2.41311589 24.65216916 -16.61968273 33.81334613 -29 39 C-29.66 38.67 -30.32 38.34 -31 38 C-27.79994384 34.35883335 -24.22804572 32.45367302 -19.9375 30.375 C-11.76162038 26.20226886 -2.87226816 20.79346015 1.1875 12.1875 C1.92674844 9.28737149 2.27020151 6.97221662 2 4 C1.34 3.67 0.68 3.34 0 3 C0 2.01 0 1.02 0 0 Z " fill="#F3F3F3" transform="translate(353,224)"/>
<path d="M0 0 C0.66 0 1.32 0 2 0 C2.66 0.99 3.32 1.98 4 3 C4.33 3 4.66 3 5 3 C5.1875 5.8125 5.1875 5.8125 5 9 C4.525625 9.45375 4.05125 9.9075 3.5625 10.375 C1.49110461 12.5292512 1.30530872 14.26855601 0.8125 17.1875 C0.65394531 18.08855469 0.49539063 18.98960937 0.33203125 19.91796875 C0.22246094 20.60503906 0.11289062 21.29210937 0 22 C-0.99 22 -1.98 22 -3 22 C-6.25968109 12.58997722 -6.25968109 12.58997722 -7 8 C-3.55783328 10.6598561 -3.00495326 13.90288286 -2 18 C-1.67 18 -1.34 18 -1 18 C-1.01160156 16.78441406 -1.02320313 15.56882812 -1.03515625 14.31640625 C-1.04453278 12.73177236 -1.05363313 11.14713682 -1.0625 9.5625 C-1.07087891 8.76005859 -1.07925781 7.95761719 -1.08789062 7.13085938 C-1.0965143 5.08704779 -1.0522815 3.04316098 -1 1 C-0.67 0.67 -0.34 0.34 0 0 Z " fill="#D0F5FE" transform="translate(363,325)"/>
<path d="M0 0 C0.8971875 0.4846875 1.794375 0.969375 2.71875 1.46875 C12.05887175 6.49328309 21.49174564 11.30209771 31 16 C28.30574879 17.05601621 27.17671141 17.06299003 24.40625 16.07543945 C23.4471875 15.59292725 22.488125 15.11041504 21.5 14.61328125 C20.448125 14.08669922 19.39625 13.56011719 18.3125 13.01757812 C17.219375 12.45490234 16.12625 11.89222656 15 11.3125 C13.906875 10.76916016 12.81375 10.22582031 11.6875 9.66601562 C6.79085352 7.18468803 2.74189608 5.08773465 -1 1 C-0.67 0.67 -0.34 0.34 0 0 Z " fill="#E4F3F9" transform="translate(312,287)"/>
<path d="M0 0 C0 0.99 0 1.98 0 3 C-6.93 6.465 -6.93 6.465 -14 10 C-14 9.01 -14 8.02 -14 7 C-9.38 4.69 -4.76 2.38 0 0 Z " fill="#2995C6" transform="translate(322,260)"/>
<path d="M0 0 C0.33 0 0.66 0 1 0 C1.66 3.63 2.32 7.26 3 11 C2.01 11 1.02 11 0 11 C0 10.34 0 9.68 0 9 C-0.99 9.33 -1.98 9.66 -3 10 C-2.67 8.35 -2.34 6.7 -2 5 C-1.67 5 -1.34 5 -1 5 C-0.67 3.35 -0.34 1.7 0 0 Z " fill="#1285BF" transform="translate(299,266)"/>
<path d="M0 0 C0 0.99 0 1.98 0 3 C-1.96466413 4.06775224 -3.96855359 5.06553465 -6 6 C-6.66 5.67 -7.32 5.34 -8 5 C-3.16129032 0 -3.16129032 0 0 0 Z " fill="#EAEDEE" transform="translate(330,257)"/>
<path d="M0 0 C0.66 0 1.32 0 2 0 C1.67 4.62 1.34 9.24 1 14 C0.67 14 0.34 14 0 14 C-0.19393875 11.85473901 -0.37998676 9.70876323 -0.5625 7.5625 C-0.71912109 5.77005859 -0.71912109 5.77005859 -0.87890625 3.94140625 C-0.91886719 2.97074219 -0.95882813 2.00007813 -1 1 C-0.67 0.67 -0.34 0.34 0 0 Z " fill="#A8EDFE" transform="translate(363,325)"/>
</svg>
